# xmcd CD database file
#
# Track frame offsets:
#	150
#	11417
#	29550
#	36690
#	47695
#	57925
#	73012
#	86195
#	101560
#	110000
#	120667
#	136775
#	150715
#	168285
#
# Disc length: 2388 seconds
#
# Revision: 5
# Processed by: cddbd v1.5.2PL0 Copyright (c) Steve Scherf et al.
# Submitted via: CDex 1.50beta10
#
DISCID=c009520e
DTITLE=Neko Case - Blacklisted
DYEAR=2002
DGENRE=Americana
TTITLE0=Things that Scare Me
TTITLE1=Deep Red Bells
TTITLE2=Outro with Bees
TTITLE3=Lady Pilot
TTITLE4=Tightly
TTITLE5=Look for Me (I'll Be Around)
TTITLE6=Stinging Velvet
TTITLE7=Pretty Girls
TTITLE8=I missed the Point
TTITLE9=Blacklisted
TTITLE10=I Wish I Was the Moon
TTITLE11=Runnin' Out of Fools
TTITLE12=Ghost Wiring
TTITLE13=Outro with Bees (Reprise)
EXTD=YEAR: 2002
EXTT0=
EXTT1=
EXTT2=
EXTT3=
EXTT4=
EXTT5=
EXTT6=
EXTT7=
EXTT8=
EXTT9=
EXTT10=
EXTT11=
EXTT12=
EXTT13=
PLAYORDER=
